<?xml version="1.0" encoding="utf-8"?>
<!-- Generator: Adobe Illustrator 28.0.0, SVG Export Plug-In . SVG Version: 6.00 Build 0)  -->
<svg version="1.1" id="Capa_1" xmlns="http://www.w3.org/2000/svg" xmlns:xlink="http://www.w3.org/1999/xlink" x="0px" y="0px"
	 viewBox="0 0 263.6 212.6" style="enable-background:new 0 0 263.6 212.6;" xml:space="preserve">
<style type="text/css">
	.st0{fill:#FFFFFF;}
</style>
<g>
	<path class="st0" d="M79.3,95.9h1.1V106h-1.1V95.9z"/>
	<path class="st0" d="M82.8,100.9c0-3,2.3-5.1,5.4-5.1c1.5,0,2.9,0.5,3.8,1.5L91.3,98c-0.8-0.8-1.9-1.2-3.1-1.2
		c-2.5,0-4.4,1.8-4.4,4.2c0,2.4,1.9,4.2,4.4,4.2c1.2,0,2.2-0.4,3.1-1.2l0.7,0.7c-0.9,1-2.3,1.5-3.8,1.5
		C85.1,106.1,82.8,103.9,82.8,100.9z"/>
	<path class="st0" d="M93.2,100.9c0-2.9,2.3-5.1,5.4-5.1s5.4,2.2,5.4,5.1s-2.3,5.1-5.4,5.1C95.5,106.1,93.2,103.9,93.2,100.9z
		 M103,100.9c0-2.4-1.8-4.2-4.3-4.2s-4.4,1.8-4.4,4.2c0,2.4,1.9,4.2,4.4,4.2C101.1,105.1,103,103.4,103,100.9z"/>
	<path class="st0" d="M115.1,95.9V106h-0.9l-6.6-8.2v8.2h-1.1V95.9h0.9l6.7,8.2v-8.2H115.1z"/>
	<path class="st0" d="M118.5,95.9h1.1V106h-1.1V95.9z"/>
	<path class="st0" d="M122,100.9c0-3,2.3-5.1,5.4-5.1c1.5,0,2.9,0.5,3.8,1.5l-0.7,0.7c-0.8-0.8-1.9-1.2-3.1-1.2
		c-2.5,0-4.4,1.8-4.4,4.2c0,2.4,1.9,4.2,4.4,4.2c1.2,0,2.2-0.4,3.1-1.2l0.7,0.7c-0.9,1-2.3,1.5-3.8,1.5
		C124.3,106.1,122,103.9,122,100.9z"/>
	<path class="st0" d="M140.9,102.5v3.5h-1.1v-3.5l-4.1-6.6h1.2l3.5,5.7l3.5-5.7h1.1L140.9,102.5z"/>
	<path class="st0" d="M153.8,105.1v0.9h-7.3V95.9h7.1v0.9h-6v3.6h5.3v0.9h-5.3v3.8C147.6,105.1,153.8,105.1,153.8,105.1z"/>
	<path class="st0" d="M162.9,103.3h-5.8l-1.2,2.7h-1.1l4.7-10.1h1.1l4.7,10.1h-1.2L162.9,103.3z M162.5,102.4L160,97l-2.5,5.4H162.5
		z"/>
	<path class="st0" d="M174,106l-2.4-3.3c-0.3,0-0.5,0-0.8,0H168v3.2h-1v-10h3.9c2.6,0,4.2,1.3,4.2,3.5c0,1.6-0.9,2.7-2.4,3.2
		l2.5,3.5L174,106L174,106z M174,99.4c0-1.6-1.1-2.5-3.2-2.5h-2.7v5.1h2.7C172.9,101.9,174,100.9,174,99.4z"/>
	<path class="st0" d="M176.6,104.8l0.4-0.8c0.7,0.7,2,1.2,3.4,1.2c1.9,0,2.8-0.8,2.8-1.8c0-2.8-6.4-1.1-6.4-4.8
		c0-1.5,1.2-2.8,3.8-2.8c1.2,0,2.4,0.3,3.2,0.9l-0.4,0.9c-0.9-0.6-1.9-0.8-2.8-0.8c-1.9,0-2.7,0.8-2.7,1.8c0,2.8,6.4,1.1,6.4,4.8
		c0,1.5-1.2,2.8-3.9,2.8C178.9,106.1,177.4,105.6,176.6,104.8z"/>
</g>
<g>
	<g>
		<path class="st0" d="M167,22.6c-3.5,0-10.1,0.8-15.7,5.8c-6.4,5.7-9.6,15-9.6,27.7c0,31,19.4,33.5,25.3,33.5
			c15.4,0,25.3-13.1,25.3-33.5C192.3,35.8,182.4,22.6,167,22.6z M167,88.6c-5.7,0-24.3-2.3-24.3-32.5c0-12.4,3.1-21.4,9.2-26.9
			c5.4-4.8,11.8-5.5,15.1-5.5c14.8,0,24.3,12.7,24.3,32.5C191.3,75.8,181.8,88.6,167,88.6z"/>
		<path class="st0" d="M167,26.3c-6.5,0-21.6,2.9-21.6,29.8s15.1,29.8,21.6,29.8c13.3,0,21.6-11.4,21.6-29.8S180.3,26.3,167,26.3z
			 M167,84.9c-6.2,0-20.6-2.8-20.6-28.8s14.4-28.8,20.6-28.8c12.7,0,20.6,11,20.6,28.8C187.6,73.8,179.7,84.9,167,84.9z"/>
		<path class="st0" d="M167,30c-6.7,0-17.9,3.4-17.9,26.1s11.2,26.1,17.9,26.1c11.2,0,17.9-9.7,17.9-26.1
			C184.9,39.8,178.2,30,167,30z M167,81.2c-6.3,0-16.9-3.3-16.9-25.1C150,34.3,160.7,31,167,31c10.6,0,16.9,9.4,16.9,25.1
			S177.6,81.2,167,81.2z"/>
		<path class="st0" d="M167,33.7c-9.3,0-14.2,7.7-14.2,22.4c0,14.6,4.9,22.4,14.2,22.4c9,0,14.2-8.2,14.2-22.4S176,33.7,167,33.7z
			 M167,77.5c-10.9,0-13.2-11.6-13.2-21.4S156,34.7,167,34.7c11.9,0,13.2,14.9,13.2,21.4S178.9,77.5,167,77.5z"/>
	</g>
	<path class="st0" d="M132.5,30.7c-1.4-1.2-3.4-3-5.5-4.3c-2.8-1.8-4.9-2-6.2-2h-14.7c-0.8,0-1.4,0.6-1.4,1.4V26
		c0,1.4,1.8,2.4,3,2.4h0.2c0,0.1-0.1,0.3-0.1,0.4c0,1.3,1.4,2.3,2.6,2.3h0.6c0,0.1-0.1,0.2-0.1,0.3c0,0.7,0.3,1.3,0.8,1.6l0,0
		c0.1,0.1,0.6,0.6,1.5,1c0.4,0.2,0.7,0.3,1.1,0.5c0.6,0.3,1.1,0.5,1.6,0.6s0.9,0.2,1.2,0.3c0.2,0,0.4,0,0.6,0c0.5,0,1,0,1.3,0
		c0.2,0,0.3,0,0.3,0v52.2h13L132.5,30.7L132.5,30.7z M107.7,27.5c-0.8,0-2-0.7-2-1.4v-0.2c0-0.2,0.2-0.4,0.4-0.4h13.5v2H107.7z
		 M113.2,32.6c-0.6,0-1.1-0.5-1.1-1.1c0-0.1,0.1-0.3,0.2-0.3l7.2-0.2v1.4l-4.3,0.2l0,0H113.2z M117,34.5
		C117,34.5,116.9,34.5,117,34.5c-0.6-0.1-0.8-0.4-0.8-0.6c0-0.2,0.1-0.4,0.7-0.4l0,0l2.6-0.1v1.2h-1.6
		C117.6,34.6,117.3,34.5,117,34.5z M110.5,30.2c-0.7,0-1.6-0.6-1.6-1.4c0-0.2,0.2-0.3,0.3-0.3h10.3V30l-7.2,0.2l0,0L110.5,30.2z
		 M123.5,86.7h-3V25.5h0.3c0.7,0,1.6,0.1,2.7,0.4V86.7z M127.5,86.7h-3V26.3c0.6,0.3,1.2,0.6,1.9,1c0.4,0.2,0.7,0.5,1.1,0.7V86.7z
		 M131.5,86.7h-3v-58c1.1,0.8,2.2,1.7,3,2.5V86.7z"/>
	<path class="st0" d="M99.1,30.7c-1.4-1.2-3.4-3-5.5-4.3c-2.8-1.8-4.9-2-6.2-2H72.7c-0.8,0-1.4,0.6-1.4,1.4V26c0,1.4,1.8,2.4,3,2.4
		h0.2c0,0.1-0.1,0.3-0.1,0.4c0,1.3,1.4,2.3,2.6,2.3h0.6c0,0.1-0.1,0.2-0.1,0.3c0,0.7,0.3,1.3,0.8,1.6l0,0c0.1,0.1,0.6,0.6,1.5,1
		c0.4,0.2,0.7,0.3,1.1,0.5c0.6,0.3,1.1,0.5,1.6,0.6s0.9,0.2,1.2,0.3c0.2,0,0.4,0,0.6,0c0.5,0,1,0,1.3,0c0.2,0,0.3,0,0.3,0v52.2h13
		L99.1,30.7L99.1,30.7z M74.3,27.5c-0.8,0-2-0.7-2-1.4v-0.2c0-0.2,0.2-0.4,0.4-0.4h13.5v2H74.3z M79.8,32.6c-0.6,0-1.1-0.5-1.1-1.1
		c0-0.1,0.1-0.3,0.2-0.3l7.2-0.2v1.4l-4.3,0.2l0,0H79.8z M83.6,34.5L83.6,34.5c-0.6-0.1-0.8-0.4-0.8-0.6c0-0.2,0.1-0.4,0.7-0.4l0,0
		l2.6-0.1v1.2h-1.6C84.2,34.6,83.9,34.5,83.6,34.5z M77.1,30.2c-0.7,0-1.6-0.6-1.6-1.4c0-0.2,0.2-0.3,0.3-0.3h10.3V30l-7.2,0.2l0,0
		L77.1,30.2z M90.1,86.7h-3V25.5h0.3c0.7,0,1.6,0.1,2.7,0.4V86.7z M94.1,86.7h-3V26.3c0.6,0.3,1.2,0.6,1.9,1
		c0.4,0.2,0.7,0.5,1.1,0.7V86.7z M98.1,86.7h-3v-58c1.1,0.8,2.2,1.7,3,2.5V86.7z"/>
</g>
<g>
	<polygon class="st0" points="147.6,134.4 146.2,138.2 149.1,138.2 	"/>
	<path class="st0" d="M106.9,136.9c0,2.8,1.4,4,3,4s3-1.3,3-4c0-0.2,0.1-2.5-1.4-3.5c-0.5-0.3-1-0.5-1.6-0.5
		C107.8,132.8,106.9,134.8,106.9,136.9z"/>
	<polygon class="st0" points="85.7,138.2 84.2,134.4 82.7,138.2 	"/>
	<path class="st0" d="M156.4,133c-0.2,0-0.5,0-0.7,0v3.4c0.3,0,0.5,0.1,0.8,0.1c1.7,0,2.1-0.9,2.1-1.8
		C158.5,133.5,157.7,133,156.4,133z"/>
	<path class="st0" d="M256.1,120.1c-0.7-1.1-2-1.8-3.6-1.8H152c-1.7,0-4.3,0-6.9,2.6c-0.9,0.9-1.4,1.7-1.8,2.5
		c-0.8,1.5-1.4,2.5-4.2,2.5h-14.6c-2.7,0-3.3-1.1-4.2-2.5c-0.4-0.8-0.9-1.6-1.8-2.5c-2.7-2.6-5.2-2.6-6.9-2.6H11.1
		c-1.6,0-2.9,0.7-3.6,1.8c-0.7,1.1-0.6,2.6,0.2,3.9l1.8,3c1,1.6,2.3,1.9,3.2,2.1c0.9,0.2,1.4,0.3,2,1.4l1.6,2.8
		c1.2,2.3,2.7,2.5,3.8,2.7c0.8,0.2,1.6,0.2,2.7,2.1c1,1.9,2.6,4.7,6.4,5.8c0.4,0.1,37.5,10.7,37.5,10.8c3.9,1.2,4.9,2.7,6.1,4.4
		c0.7,1.1,2.6,3.8,7.4,5.1l35.7,9.5c3.8,1,6.2-0.8,7.3-1.8l6.5-6c0.9-0.8,1.4-1.2,2-1.2c0.5,0,1.1,0.3,2,1.2l6.5,6
		c1.1,1,3.5,2.8,7.3,1.8l35.7-9.5c4.8-1.3,6.7-4.1,7.4-5.1c1.2-1.8,2.2-3.2,6.1-4.4c0,0,37.1-10.7,37.5-10.8
		c3.8-1.1,5.4-3.9,6.4-5.8c1-1.8,1.8-2,2.6-2.1c1.1-0.2,2.6-0.4,3.9-2.8l1.6-2.8c0.7-1.1,1.2-1.2,2-1.4c0.9-0.2,2.2-0.4,3.2-2.1
		l1.8-3C256.7,122.7,256.8,121.2,256.1,120.1z M147.4,131.8h1.1l4.3,10.1h-2.2l-1-2.5h-3.8l-1,2.5h-1.6L147.4,131.8z M131.8,131.8h1
		l3.6,7l3.5-7h1l1.1,10.1h-2.1l-0.6-6.2l-2.9,5.8h-0.9l-2.9-5.7l-0.6,6.1h-1.6L131.8,131.8z M123.8,138.7v-6.8h1.4V142h-1.1
		l-6.1-6.8v6.8h-1.4v-10.1h1.1L123.8,138.7z M15.5,126.3c-3.1,0-3.5,0-4.4-1.4l-1.3-2.1c-0.3-0.6-0.4-1.1-0.2-1.5s0.7-0.6,1.4-0.6
		h100.5c1.6,0,3.2,0,5.2,1.9c1.2,1.2,1.5,2.5,2.6,3.7H15.5z M115.1,136.9c0,3.1-2.1,5.3-5.2,5.3s-5.2-2.2-5.2-5.3s2.1-5.3,5.2-5.3
		C112.9,131.6,115.1,133.7,115.1,136.9z M96.6,133.3l0.1-1.5h7.9l0.1,1.5c-1.7-0.2-2.6-0.2-3.1-0.2v8.8h-1.9v-8.8
		C98.8,133.1,98,133.1,96.6,133.3z M94.5,138.7c-0.4-0.4-1-0.7-2.6-1.4c-1.4-0.6-2.1-1.6-2.1-2.8c0-0.9,0.3-1.6,0.9-2.1
		c1.3-1.1,3.5-0.7,3.7-0.7c0.4,0.1,0.8,0.2,1.2,0.4l0.2,1.7c-0.5-0.3-0.9-0.6-1.3-0.7c-1.4-0.5-2.9-0.2-2.9,1c0,0.6,0.4,1,1.2,1.4
		c1.8,0.9,2.6,1.2,3.3,2c0.8,1,0.8,2.9-0.4,3.8c-0.7,0.5-1.6,0.8-2.7,0.8c-1.5,0-2.5-0.5-2.9-0.7l-0.2-1.8c1,0.8,2,1.2,3.1,1.2
		c0.6,0,1.1-0.1,1.4-0.4C94.9,140,94.9,139.2,94.5,138.7z M89.3,141.9h-2.2l-1-2.5h-3.8l-1,2.5h-1.6l4.3-10.1h1L89.3,141.9z
		 M18.3,131.6c-0.5-0.8-1.3-2.3-1.3-2.3c-0.2-0.3-0.3-0.5-0.5-0.7h57.8v2l-49.9,2.9C20.3,133.7,19.6,133.8,18.3,131.6z M26,138.6
		c-0.4-0.5-0.7-1.1-1-1.7c-0.3-0.5-0.5-0.9-0.8-1.2c1-0.1,1.9-0.1,2.3-0.1l47.7-2.8v2.5l-41.4,4.6C28.4,140.4,27.5,140.5,26,138.6z
		 M40.8,144.7l-8.5-2.4l41.9-4.6v2.7l-25.6,4.2l0,0C45.3,145,43.1,145.2,40.8,144.7z M48.3,146.8l26-4.3v3.4l-9.6,2.4l0,0
		c-2.9,0.7-4.7,1-6,1C56.6,149.3,55.4,148.8,48.3,146.8z M72,153.3c-1.2,0-2.3-0.3-9.1-2.3c0.7-0.1,1.5-0.3,2.3-0.5l12.2-3.1h8.7
		C77.1,151.8,74.2,153.3,72,153.3z M78.7,160.1c-1.9,0-2.7-0.8-3.8-2.4c-0.6-0.8-1.1-1.6-1.8-2.3c0.4-0.1,0.9-0.2,1.4-0.3
		c2.8-0.8,6.9-2.9,16.6-7.7H99c-4.8,3.5-12.1,8.7-15.3,10.9C82.3,159.2,80.5,160.1,78.7,160.1z M81.3,161.9c1.6-0.5,3-1.3,3.7-1.8
		c3.8-2.6,13.6-9.6,17.9-12.7h6.7c-4.2,4.3-10.8,11.3-13.7,14.1c-1.2,1.2-2.9,2.7-5.3,2.7C89.7,164.2,89.9,164.2,81.3,161.9z
		 M94.5,165.4c1.5-0.8,2.5-1.9,3-2.4c3.2-3.1,11.3-11.6,15.2-15.6h6.1c-3.4,5.6-8,13.1-10,16.2c-1,1.5-2.6,3.8-5.7,3.8
		C102,167.5,101.9,167.4,94.5,165.4z M116.1,171c-0.9,0-0.7,0-9.2-2.3c2.2-1.2,3.4-3.2,3.8-3.9c2.4-3.6,7.7-12.5,10.7-17.4h5.5
		c-1.2,3.7-5.6,17.4-6.4,19.4C119.8,168.7,118.8,171,116.1,171z M141.9,170.1l-6.4-6c-1-0.9-2.2-1.8-3.7-1.8s-2.7,0.9-3.7,1.8
		l-6.4,6c-0.2,0.1-0.3,0.3-0.5,0.4c0.4-0.6,0.8-1.4,1.4-2.8c0.8-2.1,5.4-16.2,6.7-20.2h5.1c1.3,4,5.9,18.1,6.7,20.2
		c0.5,1.4,0.9,2.2,1.4,2.8C142.2,170.3,142.1,170.2,141.9,170.1z M147.5,171c-2.7,0-3.7-2.3-4.4-4.1c-0.8-2.1-5.2-15.7-6.4-19.4h5.5
		c3,4.9,8.4,13.8,10.7,17.4c0.4,0.6,1.6,2.7,3.8,3.9C148.3,171,148.5,171,147.5,171z M160.5,167.5c-3.1,0-4.7-2.3-5.7-3.8
		c-2-3.1-6.6-10.6-10-16.2h6.1c3.8,4,12,12.5,15.2,15.6c0.5,0.5,1.5,1.6,3,2.4C161.7,167.4,161.7,167.5,160.5,167.5z M161.9,141.9
		h-2.4l-3.2-4.3h-0.7v4.3h-1.9v-10c0.6-0.1,1.2-0.1,2.3-0.1c0.9,0,1.7,0.1,2.4,0.3c1,0.3,2.1,1,2.1,2.5c0,0.6-0.2,1.2-0.6,1.7
		c-0.4,0.5-0.9,0.8-1.7,1L161.9,141.9z M161.2,133.3l0.1-1.5h7.9l0.1,1.5c-1.7-0.2-2.6-0.2-3.1-0.2v8.8h-1.9v-8.8
		C163.4,133.1,162.6,133.1,161.2,133.3z M173,164.2c-2.4,0-4.1-1.6-5.3-2.7c-2.8-2.8-9.5-9.7-13.7-14.1h6.7
		c4.2,3.1,14,10.1,17.9,12.7c0.7,0.5,2.1,1.3,3.7,1.8C173.7,164.2,173.9,164.2,173,164.2z M188.7,157.7c-1.1,1.6-1.9,2.4-3.8,2.4
		c-1.7,0-3.6-0.8-5-1.8c-3.2-2.1-10.5-7.4-15.3-10.9h7.9c9.7,4.8,13.8,6.9,16.6,7.7c0.5,0.1,1,0.2,1.4,0.3
		C189.7,156.1,189.2,156.9,188.7,157.7z M170.6,141.9v-10.1h1.9v10.1H170.6z M174.6,141.9v-10.1h1.1l6.1,6.8v-6.8h1.4v10.1h-1.1
		L176,135v6.8L174.6,141.9L174.6,141.9z M191.6,153.3c-2.2,0-5.1-1.4-14.1-5.9h8.7l12.2,3.1c0.8,0.2,1.6,0.4,2.3,0.5
		C193.9,152.9,192.8,153.3,191.6,153.3z M205,149.3c-1.4,0-3.1-0.2-6-1l0,0l-9.6-2.4v-3.4l26,4.3C208.2,148.8,207,149.3,205,149.3z
		 M222.8,144.7c-2.3,0.6-4.4,0.4-7.8-0.2l0,0l-25.6-4.2v-2.7l41.9,4.6L222.8,144.7z M238.6,136.9c-0.3,0.6-0.7,1.1-1,1.7
		c-1.5,1.9-2.4,1.8-6.9,1.3l-41.4-4.6v-2.5l47.7,2.8c0.4,0,1.3,0.1,2.3,0.1C239.1,136,238.8,136.4,238.6,136.9z M246.7,129.3
		c0,0-0.9,1.5-1.3,2.3c-1.4,2.2-2.1,2.2-6.1,1.9l-49.9-2.9v-2h57.8C247,128.8,246.9,129,246.7,129.3z M253.8,122.7l-1.3,2.1
		c-0.9,1.4-1.3,1.4-4.4,1.4H144.2c1.1-1.2,1.4-2.6,2.6-3.7c2-1.9,3.6-1.9,5.2-1.9h100.5c0.7,0,1.2,0.2,1.4,0.6
		C254.2,121.6,254.1,122.2,253.8,122.7z"/>
</g>
<path class="st0" d="M209.3,6.4h-155c-2.2,0-4,1.8-4,4.1v103v2.4h2.4h58.9c1.8,0,5.2,0,8.6,3.3c1.1,1.1,1.7,2.2,2.2,3
	c0.7,1.3,1.7,1.3,3.1,1.3h12.7c1.3,0,2.3,0,3.1-1.3c0.4-0.8,1.1-1.9,2.2-3c3.4-3.3,6.8-3.3,8.6-3.3H211h2.4v-2.4v-103
	C213.3,8.2,211.5,6.4,209.3,6.4z M156.7,113.4c-3.4,0-6.9,0-10.2,1.1c-3.1,1-6,3.1-7.2,6.1c-0.1,0.3-0.4,0.5-0.7,0.5H125
	c-0.3,0-0.6-0.2-0.7-0.5c-1.2-3-4-5-7.1-6c-3.2-1-6.7-1.1-10.1-1.1c-18.2,0-36.3,0-54.5,0v-103c0-0.9,0.7-1.6,1.6-1.6h155
	c0.9,0,1.6,0.7,1.6,1.6v103C192.8,113.4,174.8,113.4,156.7,113.4z"/>
<path class="st0" d="M210.9,153.1c-7.1,2-13.1,3.8-13.4,3.8c-3.2,1-3.8,2-4.9,3.5c-0.8,1.1-3.1,4.6-8.8,6.1l-35.7,9.5
	c-0.9,0.2-1.9,0.4-2.8,0.4c-3.7,0-6-2-6.8-2.7c0,0-4.3-4-6.1-5.7c-0.4-0.4-1-0.4-1.4,0c-1.8,1.6-6.2,5.7-6.2,5.7
	c-0.8,0.7-3.1,2.7-6.7,2.7c-0.9,0-1.8-0.1-2.8-0.4l-35.7-9.5c-5.6-1.5-8-4.9-8.8-6.1c-1.1-1.6-1.7-2.5-4.8-3.5
	c-0.3-0.1-6.3-1.8-13.4-3.9c-0.8-0.2-1.6-0.5-2.4-0.7v2.5v8.5c0,5.2,3.1,9.8,7.9,11.7l73.6,31.1l73.7-31.1c4.8-1.9,7.9-6.5,7.9-11.7
	v-8.5v-2.5C212.5,152.6,211.7,152.8,210.9,153.1z M210.9,163.4c0,4.2-2.5,7.9-6.4,9.5l-72.8,30.7l-72.6-30.8
	c-3.9-1.5-6.4-5.3-6.4-9.4v-7.8c6.8,2,12.5,3.6,12.8,3.7c2.3,0.7,2.6,1.2,3.5,2.5s3.7,5.3,10.1,7l35.7,9.5c1.1,0.3,2.3,0.5,3.4,0.5
	c3,0,5.8-1.1,8.3-3.3l4.6-4.3c0.4-0.3,0.9-0.3,1.3,0l4.5,4.2c1,0.9,3.9,3.4,8.5,3.4c1.1,0,2.3-0.2,3.4-0.5l35.7-9.5
	c6.5-1.7,9.2-5.7,10.1-7c0.9-1.3,1.2-1.8,3.6-2.6c0.4-0.1,5.9-1.7,12.6-3.6L210.9,163.4L210.9,163.4z"/>
</svg>
