<?xml version="1.0" encoding="utf-8"?>
<!-- Generator: Adobe Illustrator 28.0.0, SVG Export Plug-In . SVG Version: 6.00 Build 0)  -->
<svg version="1.1" id="svg3557" xmlns:svg="http://www.w3.org/2000/svg"
	 xmlns="http://www.w3.org/2000/svg" xmlns:xlink="http://www.w3.org/1999/xlink" x="0px" y="0px" viewBox="0 0 800 800"
	 style="enable-background:new 0 0 800 800;" xml:space="preserve">
<style type="text/css">
	.st0{fill:#FFFFFF;}
</style>
<g id="layer1" transform="translate(-214.95981,-319.12584)">
	<path id="path2578" class="st0" d="M1003.2,642.9c-2.7-4.5-7.7-4.8-9.8-5H678.4c-8.9,0-16.1,2.7-21.5,8c-3.8,3.8-6.4,8.8-7.8,14.8
		c-0.1,0.2-0.5,1.4-3.1,1.4h-62.3c-2.7,0-3-1.2-3.1-1.4c-1.3-6-4-10.9-7.8-14.8c-5.3-5.3-12.6-8-21.4-8H236.6c-2,0.1-7,0.4-9.8,5
		c-1.3,2.2-2.3,5.9,0.5,11.2l5.8,9.6c2.3,3.8,5.1,5.2,10.7,5.6c0.1,0,2.7,0.2,4.5,3.4l5.9,10.3c1.2,2.3,4.1,7.9,14.1,9.3
		c0.2,0,3,0.3,4.7,3.4l7.3,12.7c2.1,4.1,5.1,5.6,10.5,7.3l131.7,38.7c4.5,1.3,6.3,6.4,6.3,6.4c3.1,8.1,7.2,14.8,27.8,21l107.7,29.4
		c1.3,0.5,13.7,4.2,23-4.8l25.3-24.1c0,0,1-1,2.4-1c1.4,0,2.5,1.1,2.5,1.1c0.1,0.1,25.2,24.1,25.2,24.1c9.3,9,21.6,5.2,23,4.8
		c-0.1,0,107.7-29.4,107.7-29.4c20.5-6.2,24.8-13,27.7-21c0.2-0.3,1.9-5.1,6.3-6.4c0,0,19.9-5.9,131.7-38.7
		c5.4-1.6,8.4-3.2,10.5-7.3l7.2-12.7c1.6-3.1,4.5-3.4,4.6-3.5c10.1-1.3,13-6.9,14.2-9.3l5.9-10.3c1.8-3.2,4.5-3.4,4.6-3.4
		c5.6-0.4,8.4-1.8,10.7-5.6l5.8-9.6c1.2-2.3,1.8-4.4,1.8-6.4C1004.4,645.9,1004.1,644.3,1003.2,642.9 M654.9,662
		c1.1-4.8,3.2-8.8,6.2-11.9c4.2-4.2,10-6.3,17.3-6.3h144.7c-5,3.8-7.6,8.4-7.7,8.8c-1.7,3.1-3.8,6.8-6.2,10.9H654.4
		C654.7,662.9,654.9,662,654.9,662 M459,711.8L459,711.8l-0.1-43.8h312v43.8l0,0H459z M454.4,673.9l-25.6,1.7
		c-1.8-2.7-3.5-5.2-5.1-7.7h30.7V673.9z M454.4,678.7v6.2l-17.1,2.3c-1.9-2.4-3.6-4.8-5.3-7L454.4,678.7z M454.4,689.5v7.2l-8,1.6
		c-2-2.3-4-4.7-5.9-7L454.4,689.5z M454.4,701.4v5.7c-1.6-1.6-3-3.2-4.5-4.8C451.7,701.9,453.2,701.6,454.4,701.4 M512,716.4h28.2
		l-39.4,28.2c-6.8-4.1-13.5-8.7-19.9-13.6C495.7,724,509.4,717.6,512,716.4 M476.9,727.8c-0.4-0.3-9.4-7.8-13.1-11.4h37.5
		L476.9,727.8z M548,716.4h15.2l-38.8,40.5c-6.6-2.9-13-6.2-19.2-9.8C523.7,733.8,543.2,719.9,548,716.4 M569.5,716.4h12.9
		L552.5,767c-8-2.3-15.9-5-23.6-8.2C545.1,741.8,564.8,721.3,569.5,716.4 M587.6,716.4h10.9l-15.8,56.9c-8.8-1.2-17.3-2.8-25.7-5
		C568.5,748.9,583.8,722.9,587.6,716.4 M642.3,716.4l30.6,51.8c-8.4,2.2-17,3.8-25.7,5l-15.8-56.8H642.3z M647.6,716.4h12.9
		l40.6,42.4c-7.7,3.2-15.5,5.9-23.7,8.2L647.6,716.4z M666.7,716.4h15.2l42.9,30.7c-6.2,3.6-12.7,6.9-19.2,9.8
		C691.4,742.2,674.4,724.3,666.7,716.4 M689.7,716.4h28.2l31.1,14.5c-6.5,5-13.1,9.5-19.9,13.6C714.1,733.8,698.2,722.5,689.7,716.4
		 M728.7,716.4h37.5c-3.8,3.8-12.9,11.2-13.1,11.4C743.9,723.6,735,719.3,728.7,716.4 M775.5,701.4l4.5,0.9c-1.5,1.6-3,3.2-4.5,4.8
		V701.4z M775.5,696.8v-7.2l13.9,1.9c-1.9,2.3-3.8,4.6-5.9,7C780,697.6,777.2,697.1,775.5,696.8 M775.5,685v-6.2l22.4,1.5
		c-1.6,2.3-3.4,4.7-5.3,7L775.5,685z M775.5,673.9v-6h30.8c-1.6,2.4-3.3,5-5.1,7.7L775.5,673.9z M551.5,643.8
		c7.3,0,13.1,2.1,17.3,6.3c3,3,5.2,7,6.2,11.9c0,0,0.2,0.9,0.5,1.4H420.8c-2.3-3.9-6.2-10.9-6.2-10.9c-0.2-0.3-2.8-5-7.7-8.8
		L551.5,643.8L551.5,643.8z M244.2,663.4c-4-0.3-4.8-0.8-6.1-2.8c0,0-5.2-8.7-5.6-9.4c-0.9-1.6-1.2-2.8-1.1-3.6
		c0.1-2.1,1.6-3.8,5.4-3.8h157c10.6,0,16.9,10.9,16.9,10.9c1.4,2.6,3,5.5,4.9,8.8L244.2,663.4L244.2,663.4z M265.5,685.7
		c-4-1.4-5.3-3.8-6.1-5.3c-2.4-4.1-5.6-10.4-7.3-12.3h166.2c1.6,2.6,3.4,5.2,5.2,8l-145.8,9.7C275.5,686,268.8,686.5,265.5,685.7
		 M292.4,706.7c-5.3,0.7-7-1-7.3-1.5l-7-12.3c-0.5-0.9-1-1.6-1.6-2.3c0.9-0.1,150.1-10,150.1-10c1.7,2.4,3.5,4.8,5.4,7.4
		L292.4,706.7z M326.2,720.1c-14.5-4.3-26.2-7.7-31.2-9.2l140.3-18.8c2,2.4,3.9,4.8,6,7.3l-95.9,19.7
		C341.7,719.9,331.6,721.4,326.2,720.1 M373.8,734c-10.7-3.1-22-6.5-32.7-9.6c2.8-0.4,4.8-0.8,5.1-0.9c0,0,69.5-14.3,98.5-20.2
		c2.8,3.2,5.9,6.4,9.1,9.7l-64.3,19.8C389.3,732.9,380.5,735.8,373.8,734 M424,748.8c-1.4-0.4-16.6-4.8-36.3-10.7
		c1.9-0.5,3.1-0.9,3.3-0.9c-0.1,0,54-16.6,66.6-20.5c4.6,4.5,9.5,8.9,14.8,13.3l-34.8,16.2C435.2,747.4,428.5,750,424,748.8
		 M451.8,774c-13.6-5.2-15.6-10.2-17.6-15.2c-0.2-0.5-1.2-3-3.4-5.6c4.6-0.9,8.4-2.8,8.7-2.9c0,0,18.4-8.6,36.7-17.2
		c6.6,5.2,13.5,10,20.5,14.4l-32.5,23.3C464.2,770.8,457.5,775.8,451.8,774 M490.9,785.1l-28.8-7.9c2.9-1.2,4.8-2.7,5-2.8
		c0,0,16.1-11.5,34.1-24.4c6.5,3.8,13.1,7.3,19.9,10.3L502.1,780C500.5,781.8,495.1,786.1,490.9,785.1 M530.8,796l-31-8.4
		c3.2-1.8,5.5-4.1,5.6-4.3c0,0,8.8-9.2,20.1-20.9c8,3.4,16.2,6.3,24.6,8.8l-10.2,17.3C538.6,790.7,534.4,796.6,530.8,796
		 M576.3,796.6c0,0.1-1.2,5.6-5.2,8c-1.7,1.1-3.8,1.3-6.2,0.8l-27.1-7.4c3.3-2.7,5.5-6.6,5.9-7.3c0,0,4.6-7.7,10.9-18.4
		c8.8,2.3,17.7,4.1,26.9,5.4L576.3,796.6z M583.2,802.2c-2.1,2-4.4,3.1-6.6,3.8c3-3.4,4.1-7.7,4.2-8.3l5.4-19.3
		c6.7,0.8,13.6,1.3,20.5,1.6C601.1,785.1,583.2,802.2,583.2,802.2 M587.3,773.8l15.9-57.4h9.4v59
		C604.1,775.3,595.6,774.8,587.3,773.8 M617.3,775.4v-59h9.5l15.9,57.4C634.3,774.8,625.9,775.3,617.3,775.4 M642.8,798.5
		c0,0-14.6-13.9-19.5-18.7c7-0.2,13.8-0.8,20.5-1.6l5.4,19.4c0.2,0.7,1.2,4.9,4.2,8.3C649.3,804.7,648,803.6,642.8,798.5 M665,805.4
		c-2.4,0.5-4.5,0.3-6.2-0.8c-3.8-2.3-5-7.6-5.1-7.9l-5.2-18.9c9.1-1.2,18.1-3,26.9-5.4l10.9,18.4c0.4,0.7,2.6,4.5,5.9,7.2L665,805.4
		z M699.1,796c-3.6,0.5-7.8-5.3-9-7.5l-10.3-17.4c8.4-2.4,16.6-5.3,24.6-8.8l20.1,20.9c0.2,0.2,2.4,2.5,5.6,4.3L699.1,796z
		 M744.2,783.7l-5.2,1.4c-4.3,1-9.6-3.3-11.3-5c0,0-8.3-8.6-18.9-19.7c6.8-3,13.4-6.6,19.9-10.3l34.1,24.4c0.2,0.1,2.1,1.6,4.9,2.8
		C760.3,779.3,744.2,783.7,744.2,783.7 M795.7,758.8c-2,5-4,10.1-17.7,15.2c-5.6,1.7-12.3-3.3-12.4-3.3c0,0-15.2-10.9-32.6-23.3
		c7-4.4,13.9-9.1,20.5-14.3l36.8,17.2c0.2,0.1,4,2,8.6,2.9C796.9,755.7,795.9,758.3,795.7,758.8 M806,748.8
		c-4.5,1.2-11.2-1.4-13.5-2.5c0,0-17.2-8-34.8-16.3c5.3-4.3,10.2-8.8,14.8-13.3l66.6,20.5c0.2,0.1,1.3,0.5,3.2,0.9L806,748.8z
		 M856.2,734c-6.7,1.8-15.5-1.1-15.6-1.2h-0.1l0,0L776.2,713c3.2-3.2,6.2-6.5,9.1-9.7l98.4,20.2c0.2,0.1,2.3,0.5,5.1,0.9L856.2,734z
		 M903.7,720.1c-5.2,1.4-15.5-0.2-19.1-0.9c0,0-65.7-13.5-95.9-19.7c2.1-2.5,4.1-4.9,6-7.3L934.9,711L903.7,720.1z M951.8,693
		c0-0.1-5.7,10.1-7,12.2c-0.3,0.4-2,2.2-7.3,1.5L798,687.9c1.9-2.5,3.7-5,5.4-7.4l148.4,9.8c0.2,0,0.9,0.1,1.7,0.2
		C952.8,691.2,952.3,692.1,951.8,693 M976.6,669.8l-5.9,10.5c-0.9,1.6-2.1,4-6.1,5.3c-3.4,0.9-10,0.3-12.3,0l-145.7-9.7
		c1.9-2.8,3.7-5.5,5.2-8H978C977.3,668.6,976.9,669.2,976.6,669.8 M997.5,651.2c-0.1,0.2-5.6,9.4-5.6,9.4c-1.1,1.7-1.7,2.5-6.1,2.8
		H814.4c2-3.2,3.6-6.2,4.9-8.8c0.1-0.1,6.1-10.9,16.9-10.9h157c1.6,0.1,3.8,0.2,4.9,2.1c0.2,0.2,0.5,0.8,0.5,1.7
		C998.6,648.4,998.4,649.6,997.5,651.2"/>
	<path id="path2580" class="st0" d="M478.2,675.1l-13.3,29.7h3.7v-0.3c1.1-3.6,2.4-7,3.8-10.4c0,0,0.2-0.4,0.3-0.5h10.4
		c1.4,3.2,2.8,6.6,4.3,10.9v0.3h4.9l-12.7-29.7H478.2z M504.2,675.1c-5.9,0-9.5,3-9.5,8c0,5.2,3.8,6.7,7.2,8c3,1.2,6.1,2.3,6.1,5.8
		c0,3.3-2.7,6.1-5.8,6.1c-2.8,0-4.8-1.3-6.6-4.3h-0.9l-0.9,4.1h0.3c1.6,1.7,5,2.6,7,2.6c6.2,0,10.7-4.1,10.7-9.8
		c0-4.8-3.7-6.4-7.2-7.8c-3.1-1.2-6.1-2.3-6.1-5.8c0-2.7,2.3-4.6,5.2-4.6c2.3,0,4.1,1.2,4.9,3.4h0.9l1.2-3.8
		C508.8,675.6,506.1,675.1,504.2,675.1z M550.4,675.1c-9.3,0-15.9,6-15.9,15c0,9.1,6.5,15.3,15.9,15.3c9.8,0,16.2-6.5,16.2-15.9
		C566.6,679.4,558.4,675.1,550.4,675.1z M661.7,675.1l-13.3,29.7h3.4v-0.3c1.1-3.7,2.7-7,4.1-10.4c0,0,0.2-0.4,0.3-0.5h10.1
		c1.4,3.2,2.9,6.8,4.3,10.9l0.3,0.3h4.9l-13-29.7H661.7z M513.4,675.7v2.9h0.3c2.5-0.3,5-0.3,8.9-0.3v26.6h4.1v-26.6
		c3,0,6,0,8.7,0.3h0.3v-2.9h-0.3H513.4z M571.2,675.7v29.1h2.9v-22.5c0.2,0.2,18.2,19.9,18.2,19.9l2.3,2.6h1.4v-29.1h-0.3h-2.6
		c0,0,0,21.2,0,21.6c-0.2-0.2-19.9-21.6-19.9-21.6H571.2z M616.7,675.7v0.3c-0.4,4.3-3,21.8-4.1,28.6v0.3h3.4v-0.3
		c0-4.1,0.7-10.2,1.4-16.7c0,0,0.5-2.9,0.5-4.1c0.5,0.9,6,11.2,8,15.5l2.3,4.9h0.9c2.4-5.6,5.9-12,10.7-20.5c0.6,5,1.6,15,2,20.8
		v0.3h4.6v-0.3c-1-7.1-2.2-16.3-3.4-28.6v-0.3h-0.3h-1.2l-7,12.7c0,0-4.5,8.2-4.9,8.9c-4.4-7.3-8.2-15-11.6-21.6H618L616.7,675.7
		L616.7,675.7z M678.5,675.7v29.1h4.1c0,0,0-13.7,0-14.1h1.2c0.2,0.2,3.4,4.1,3.4,4.1l4.9,6.3l2.6,3.8h0.3h5.2
		c0,0-11-13.8-11.6-14.5c5.3-1.1,8.7-4,8.7-8c0-4.5-3.4-6.6-9.8-6.6H678.5z M699.5,675.7v2.9h0.3c2.5-0.3,5-0.3,8.9-0.3v26.6h4.1
		c0,0,0-26,0-26.6c3,0,6,0,8.7,0.3h0.3v-2.9h-0.3H699.5z M725.2,675.7v29.1h4.1v-29.1H725.2z M735.3,675.7v29.1h2.9v-22.5
		c0.2,0.2,18.2,19.9,18.2,19.9l2.3,2.6h1.4v-29.1h-2.9v21.6c-0.2-0.2-19.9-21.6-19.9-21.6H735.3z M550.6,676.8
		c3.4,0,6.7,1.6,8.7,4.1c2.2,2.7,2.6,5.5,2.6,8.9c0,0.2,0,0.4,0,0.5c0,2.8-1.1,7-3.8,9.8c-2,2.2-4.7,3.2-7.8,3.2
		c-6.8,0-11.2-5-11.2-12.7C539.1,682.2,543.5,676.8,550.6,676.8z M682.5,677.7c1.7-0.1,4.6-0.2,6.1,0c2.9,0.5,4.3,2,4.3,4.9
		c0,3-2,5.1-5.2,5.8c-1.8,0.4-4.1,0.3-5.2,0.3L682.5,677.7L682.5,677.7z M478,681.4c0.4,0.9,4.1,9.1,4.3,9.8h-8.4
		C474.2,690.6,477.5,682.5,478,681.4z M661.5,681.4c0.4,0.9,3.8,9.1,4.1,9.8h-8.4C657.4,690.6,661,682.5,661.5,681.4z"/>
</g>
</svg>
