<?xml version="1.0" encoding="utf-8"?>
<!-- Generator: Adobe Illustrator 28.1.0, SVG Export Plug-In . SVG Version: 6.00 Build 0)  -->
<svg version="1.1" id="svg3557" xmlns:svg="http://www.w3.org/2000/svg"
	 xmlns="http://www.w3.org/2000/svg" xmlns:xlink="http://www.w3.org/1999/xlink" x="0px" y="0px" viewBox="0 0 778.9 174.5"
	 style="enable-background:new 0 0 778.9 174.5;" xml:space="preserve">
<style type="text/css">
	.st0{fill:#FFFFFF;}
</style>
<g id="layer1" transform="translate(-214.95981,-319.12584)">
	<path id="path2578" class="st0" d="M992.7,324.1c-2.7-4.5-7.7-4.8-9.8-5h-315c-8.9,0-16.1,2.7-21.5,8c-3.8,3.8-6.4,8.8-7.8,14.8
		c-0.1,0.2-0.5,1.4-3.1,1.4h-62.3c-2.7,0-3-1.2-3.1-1.4c-1.3-6-4-10.9-7.8-14.8c-5.3-5.3-12.6-8-21.4-8H226.1c-2,0.1-7,0.4-9.8,5
		c-1.3,2.2-2.3,5.9,0.5,11.2l5.8,9.6c2.3,3.8,5.1,5.2,10.7,5.6c0.1,0,2.7,0.2,4.5,3.4l5.9,10.3c1.2,2.3,4.1,7.9,14.1,9.3
		c0.2,0,3,0.3,4.7,3.4l7.3,12.7c2.1,4.1,5.1,5.6,10.5,7.3L412,435.6c4.5,1.3,6.3,6.4,6.3,6.4c3.1,8.1,7.2,14.8,27.8,21l107.7,29.4
		c1.3,0.5,13.7,4.2,23-4.8l25.3-24.1c0,0,1-1,2.4-1s2.5,1.1,2.5,1.1c0.1,0.1,25.2,24.1,25.2,24.1c9.3,9,21.6,5.2,23,4.8
		c-0.1,0,107.7-29.4,107.7-29.4c20.5-6.2,24.8-13,27.7-21c0.2-0.3,1.9-5.1,6.3-6.4c0,0,19.9-5.9,131.7-38.7
		c5.4-1.6,8.4-3.2,10.5-7.3l7.2-12.7c1.6-3.1,4.5-3.4,4.6-3.5c10.1-1.3,13-6.9,14.2-9.3l5.9-10.3c1.8-3.2,4.5-3.4,4.6-3.4
		c5.6-0.4,8.4-1.8,10.7-5.6l5.8-9.6c1.2-2.3,1.8-4.4,1.8-6.4C993.9,327.1,993.6,325.5,992.7,324.1 M644.4,343.2
		c1.1-4.8,3.2-8.8,6.2-11.9c4.2-4.2,10-6.3,17.3-6.3h144.7c-5,3.8-7.6,8.4-7.7,8.8c-1.7,3.1-3.8,6.8-6.2,10.9H643.9
		C644.2,344.1,644.4,343.2,644.4,343.2 M448.5,393L448.5,393l-0.1-43.8h312V393l0,0H448.5z M443.9,355.1l-25.6,1.7
		c-1.8-2.7-3.5-5.2-5.1-7.7h30.7V355.1z M443.9,359.9v6.2l-17.1,2.3c-1.9-2.4-3.6-4.8-5.3-7L443.9,359.9z M443.9,370.7v7.2l-8,1.6
		c-2-2.3-4-4.7-5.9-7L443.9,370.7z M443.9,382.6v5.7c-1.6-1.6-3-3.2-4.5-4.8C441.2,383.1,442.7,382.8,443.9,382.6 M501.5,397.6h28.2
		l-39.4,28.2c-6.8-4.1-13.5-8.7-19.9-13.6C485.2,405.2,498.9,398.8,501.5,397.6 M466.4,409c-0.4-0.3-9.4-7.8-13.1-11.4h37.5
		L466.4,409z M537.5,397.6h15.2l-38.8,40.5c-6.6-2.9-13-6.2-19.2-9.8C513.2,415,532.7,401.1,537.5,397.6 M559,397.6h12.9L542,448.2
		c-8-2.3-15.9-5-23.6-8.2C534.6,423,554.3,402.5,559,397.6 M577.1,397.6H588l-15.8,56.9c-8.8-1.2-17.3-2.8-25.7-5
		C558,430.1,573.3,404.1,577.1,397.6 M631.8,397.6l30.6,51.8c-8.4,2.2-17,3.8-25.7,5l-15.8-56.8H631.8z M637.1,397.6H650l40.6,42.4
		c-7.7,3.2-15.5,5.9-23.7,8.2L637.1,397.6z M656.2,397.6h15.2l42.9,30.7c-6.2,3.6-12.7,6.9-19.2,9.8
		C680.9,423.4,663.9,405.5,656.2,397.6 M679.2,397.6h28.2l31.1,14.5c-6.5,5-13.1,9.5-19.9,13.6C703.6,415,687.7,403.7,679.2,397.6
		 M718.2,397.6h37.5c-3.8,3.8-12.9,11.2-13.1,11.4C733.4,404.8,724.5,400.5,718.2,397.6 M765,382.6l4.5,0.9c-1.5,1.6-3,3.2-4.5,4.8
		V382.6z M765,378v-7.2l13.9,1.9c-1.9,2.3-3.8,4.6-5.9,7C769.5,378.8,766.7,378.3,765,378 M765,366.2V360l22.4,1.5
		c-1.6,2.3-3.4,4.7-5.3,7L765,366.2z M765,355.1v-6h30.8c-1.6,2.4-3.3,5-5.1,7.7L765,355.1z M541,325c7.3,0,13.1,2.1,17.3,6.3
		c3,3,5.2,7,6.2,11.9c0,0,0.2,0.9,0.5,1.4H410.3c-2.3-3.9-6.2-10.9-6.2-10.9c-0.2-0.3-2.8-5-7.7-8.8L541,325L541,325z M233.7,344.6
		c-4-0.3-4.8-0.8-6.1-2.8c0,0-5.2-8.7-5.6-9.4c-0.9-1.6-1.2-2.8-1.1-3.6c0.1-2.1,1.6-3.8,5.4-3.8h157c10.6,0,16.9,10.9,16.9,10.9
		c1.4,2.6,3,5.5,4.9,8.8L233.7,344.6L233.7,344.6z M255,366.9c-4-1.4-5.3-3.8-6.1-5.3c-2.4-4.1-5.6-10.4-7.3-12.3h166.2
		c1.6,2.6,3.4,5.2,5.2,8L267.2,367C265,367.2,258.3,367.7,255,366.9 M281.9,387.9c-5.3,0.7-7-1-7.3-1.5l-7-12.3
		c-0.5-0.9-1-1.6-1.6-2.3c0.9-0.1,150.1-10,150.1-10c1.7,2.4,3.5,4.8,5.4,7.4L281.9,387.9z M315.7,401.3
		c-14.5-4.3-26.2-7.7-31.2-9.2l140.3-18.8c2,2.4,3.9,4.8,6,7.3l-95.9,19.7C331.2,401.1,321.1,402.6,315.7,401.3 M363.3,415.2
		c-10.7-3.1-22-6.5-32.7-9.6c2.8-0.4,4.8-0.8,5.1-0.9c0,0,69.5-14.3,98.5-20.2c2.8,3.2,5.9,6.4,9.1,9.7L379,414
		C378.8,414.1,370,417,363.3,415.2 M413.5,430c-1.4-0.4-16.6-4.8-36.3-10.7c1.9-0.5,3.1-0.9,3.3-0.9c-0.1,0,54-16.6,66.6-20.5
		c4.6,4.5,9.5,8.9,14.8,13.3l-34.8,16.2C424.7,428.6,418,431.2,413.5,430 M441.3,455.2c-13.6-5.2-15.6-10.2-17.6-15.2
		c-0.2-0.5-1.2-3-3.4-5.6c4.6-0.9,8.4-2.8,8.7-2.9c0,0,18.4-8.6,36.7-17.2c6.6,5.2,13.5,10,20.5,14.4L453.7,452
		C453.7,452,447,457,441.3,455.2 M480.4,466.3l-28.8-7.9c2.9-1.2,4.8-2.7,5-2.8c0,0,16.1-11.5,34.1-24.4c6.5,3.8,13.1,7.3,19.9,10.3
		l-19,19.7C490,463,484.6,467.3,480.4,466.3 M520.3,477.2l-31-8.4c3.2-1.8,5.5-4.1,5.6-4.3c0,0,8.8-9.2,20.1-20.9
		c8,3.4,16.2,6.3,24.6,8.8l-10.2,17.3C528.1,471.9,523.9,477.8,520.3,477.2 M565.8,477.8c0,0.1-1.2,5.6-5.2,8
		c-1.7,1.1-3.8,1.3-6.2,0.8l-27.1-7.4c3.3-2.7,5.5-6.6,5.9-7.3c0,0,4.6-7.7,10.9-18.4c8.8,2.3,17.7,4.1,26.9,5.4L565.8,477.8z
		 M572.7,483.4c-2.1,2-4.4,3.1-6.6,3.8c3-3.4,4.1-7.7,4.2-8.3l5.4-19.3c6.7,0.8,13.6,1.3,20.5,1.6
		C590.6,466.3,572.7,483.4,572.7,483.4 M576.8,455l15.9-57.4h9.4v59C593.6,456.5,585.1,456,576.8,455 M606.8,456.6v-59h9.5
		l15.9,57.4C623.8,456,615.4,456.5,606.8,456.6 M632.3,479.7c0,0-14.6-13.9-19.5-18.7c7-0.2,13.8-0.8,20.5-1.6l5.4,19.4
		c0.2,0.7,1.2,4.9,4.2,8.3C638.8,485.9,637.5,484.8,632.3,479.7 M654.5,486.6c-2.4,0.5-4.5,0.3-6.2-0.8c-3.8-2.3-5-7.6-5.1-7.9
		L638,459c9.1-1.2,18.1-3,26.9-5.4l10.9,18.4c0.4,0.7,2.6,4.5,5.9,7.2L654.5,486.6z M688.6,477.2c-3.6,0.5-7.8-5.3-9-7.5l-10.3-17.4
		c8.4-2.4,16.6-5.3,24.6-8.8l20.1,20.9c0.2,0.2,2.4,2.5,5.6,4.3L688.6,477.2z M733.7,464.9l-5.2,1.4c-4.3,1-9.6-3.3-11.3-5
		c0,0-8.3-8.6-18.9-19.7c6.8-3,13.4-6.6,19.9-10.3l34.1,24.4c0.2,0.1,2.1,1.6,4.9,2.8C749.8,460.5,733.7,464.9,733.7,464.9
		 M785.2,440c-2,5-4,10.1-17.7,15.2c-5.6,1.7-12.3-3.3-12.4-3.3c0,0-15.2-10.9-32.6-23.3c7-4.4,13.9-9.1,20.5-14.3l36.8,17.2
		c0.2,0.1,4,2,8.6,2.9C786.4,436.9,785.4,439.5,785.2,440 M795.5,430c-4.5,1.2-11.2-1.4-13.5-2.5c0,0-17.2-8-34.8-16.3
		c5.3-4.3,10.2-8.8,14.8-13.3l66.6,20.5c0.2,0.1,1.3,0.5,3.2,0.9L795.5,430z M845.7,415.2c-6.7,1.8-15.5-1.1-15.6-1.2H830l0,0
		l-64.3-19.8c3.2-3.2,6.2-6.5,9.1-9.7l98.4,20.2c0.2,0.1,2.3,0.5,5.1,0.9L845.7,415.2z M893.2,401.3c-5.2,1.4-15.5-0.2-19.1-0.9
		c0,0-65.7-13.5-95.9-19.7c2.1-2.5,4.1-4.9,6-7.3l140.2,18.8L893.2,401.3z M941.3,374.2c0-0.1-5.7,10.1-7,12.2
		c-0.3,0.4-2,2.2-7.3,1.5l-139.5-18.8c1.9-2.5,3.7-5,5.4-7.4l148.4,9.8c0.2,0,0.9,0.1,1.7,0.2C942.3,372.4,941.8,373.3,941.3,374.2
		 M966.1,351l-5.9,10.5c-0.9,1.6-2.1,4-6.1,5.3c-3.4,0.9-10,0.3-12.3,0l-145.7-9.7c1.9-2.8,3.7-5.5,5.2-8h166.2
		C966.8,349.8,966.4,350.4,966.1,351 M987,332.4c-0.1,0.2-5.6,9.4-5.6,9.4c-1.1,1.7-1.7,2.5-6.1,2.8H803.9c2-3.2,3.6-6.2,4.9-8.8
		c0.1-0.1,6.1-10.9,16.9-10.9h157c1.6,0.1,3.8,0.2,4.9,2.1c0.2,0.2,0.5,0.8,0.5,1.7C988.1,329.6,987.9,330.8,987,332.4"/>
	<path id="path2580" class="st0" d="M467.7,356.3L454.4,386h3.7v-0.3c1.1-3.6,2.4-7,3.8-10.4c0,0,0.2-0.4,0.3-0.5h10.4
		c1.4,3.2,2.8,6.6,4.3,10.9v0.3h4.9l-12.7-29.7H467.7z M493.7,356.3c-5.9,0-9.5,3-9.5,8c0,5.2,3.8,6.7,7.2,8c3,1.2,6.1,2.3,6.1,5.8
		c0,3.3-2.7,6.1-5.8,6.1c-2.8,0-4.8-1.3-6.6-4.3h-0.9l-0.9,4.1h0.3c1.6,1.7,5,2.6,7,2.6c6.2,0,10.7-4.1,10.7-9.8
		c0-4.8-3.7-6.4-7.2-7.8c-3.1-1.2-6.1-2.3-6.1-5.8c0-2.7,2.3-4.6,5.2-4.6c2.3,0,4.1,1.2,4.9,3.4h0.9l1.2-3.8
		C498.3,356.8,495.6,356.3,493.7,356.3z M539.9,356.3c-9.3,0-15.9,6-15.9,15c0,9.1,6.5,15.3,15.9,15.3c9.8,0,16.2-6.5,16.2-15.9
		C556.1,360.6,547.9,356.3,539.9,356.3z M651.2,356.3L637.9,386h3.4v-0.3c1.1-3.7,2.7-7,4.1-10.4c0,0,0.2-0.4,0.3-0.5h10.1
		c1.4,3.2,2.9,6.8,4.3,10.9l0.3,0.3h4.9l-13-29.7H651.2z M502.9,356.9v2.9h0.3c2.5-0.3,5-0.3,8.9-0.3v26.6h4.1v-26.6
		c3,0,6,0,8.7,0.3h0.3v-2.9h-0.3H502.9z M560.7,356.9V386h2.9v-22.5c0.2,0.2,18.2,19.9,18.2,19.9l2.3,2.6h1.4v-29.1h-0.3h-2.6
		c0,0,0,21.2,0,21.6c-0.2-0.2-19.9-21.6-19.9-21.6H560.7z M606.2,356.9v0.3c-0.4,4.3-3,21.8-4.1,28.6v0.3h3.4v-0.3
		c0-4.1,0.7-10.2,1.4-16.7c0,0,0.5-2.9,0.5-4.1c0.5,0.9,6,11.2,8,15.5l2.3,4.9h0.9c2.4-5.6,5.9-12,10.7-20.5c0.6,5,1.6,15,2,20.8
		v0.3h4.6v-0.3c-1-7.1-2.2-16.3-3.4-28.6v-0.3h-0.3H631l-7,12.7c0,0-4.5,8.2-4.9,8.9c-4.4-7.3-8.2-15-11.6-21.6h0L606.2,356.9
		L606.2,356.9z M668,356.9V386h4.1c0,0,0-13.7,0-14.1h1.2c0.2,0.2,3.4,4.1,3.4,4.1l4.9,6.3l2.6,3.8h0.3h5.2c0,0-11-13.8-11.6-14.5
		c5.3-1.1,8.7-4,8.7-8c0-4.5-3.4-6.6-9.8-6.6L668,356.9L668,356.9z M689,356.9v2.9h0.3c2.5-0.3,5-0.3,8.9-0.3v26.6h4.1
		c0,0,0-26,0-26.6c3,0,6,0,8.7,0.3h0.3v-2.9H711H689z M714.7,356.9V386h4.1v-29.1H714.7z M724.8,356.9V386h2.9v-22.5
		c0.2,0.2,18.2,19.9,18.2,19.9l2.3,2.6h1.4v-29.1h-2.9v21.6c-0.2-0.2-19.9-21.6-19.9-21.6H724.8z M540.1,358c3.4,0,6.7,1.6,8.7,4.1
		c2.2,2.7,2.6,5.5,2.6,8.9c0,0.2,0,0.4,0,0.5c0,2.8-1.1,7-3.8,9.8c-2,2.2-4.7,3.2-7.8,3.2c-6.8,0-11.2-5-11.2-12.7
		C528.6,363.4,533,358,540.1,358z M672,358.9c1.7-0.1,4.6-0.2,6.1,0c2.9,0.5,4.3,2,4.3,4.9c0,3-2,5.1-5.2,5.8
		c-1.8,0.4-4.1,0.3-5.2,0.3L672,358.9L672,358.9z M467.5,362.6c0.4,0.9,4.1,9.1,4.3,9.8h-8.4C463.7,371.8,467,363.7,467.5,362.6z
		 M651,362.6c0.4,0.9,3.8,9.1,4.1,9.8h-8.4C646.9,371.8,650.5,363.7,651,362.6z"/>
</g>
</svg>
